<svg width="48" height="48" viewBox="0 0 48 48" fill="none" xmlns="http://www.w3.org/2000/svg">
<path d="M24 41.874C23.6186 41.8765 23.2434 41.7774 22.913 41.5869C22.5826 41.3964 22.3089 41.1213 22.12 40.79L19.22 35.8C19.2016 35.765 19.1715 35.7376 19.1349 35.7226C19.0983 35.7076 19.0576 35.7059 19.02 35.718L13.456 37.2C13.0885 37.2968 12.702 37.2955 12.3351 37.1964C11.9682 37.0973 11.6338 36.9037 11.365 36.6349C11.0963 36.3662 10.9027 36.0317 10.8036 35.6648C10.7044 35.298 10.7032 34.9115 10.8 34.544L12.296 28.944C12.3065 28.9063 12.3042 28.8661 12.2893 28.8299C12.2744 28.7937 12.2479 28.7635 12.214 28.744L7.21398 25.866C6.8838 25.6754 6.60961 25.4012 6.41898 25.071C6.22835 24.7408 6.12799 24.3663 6.12799 23.985C6.12799 23.6037 6.22835 23.2292 6.41898 22.899C6.60961 22.5688 6.8838 22.2946 7.21398 22.104L12.2 19.22C12.2342 19.2008 12.2609 19.1706 12.2758 19.1343C12.2907 19.098 12.2929 19.0577 12.282 19.02L10.8 13.456C10.7032 13.0885 10.7044 12.702 10.8036 12.3351C10.9027 11.9683 11.0963 11.6338 11.365 11.3651C11.6338 11.0963 11.9682 10.9027 12.3351 10.8036C12.702 10.7044 13.0885 10.7032 13.456 10.8L19.056 12.296C19.0937 12.3055 19.1335 12.3027 19.1695 12.2879C19.2055 12.2731 19.2358 12.2472 19.256 12.214L22.134 7.21399C22.3215 6.88427 22.5929 6.60998 22.9206 6.41892C23.2483 6.22785 23.6207 6.1268 24 6.12599C24.3814 6.1235 24.7565 6.22261 25.0869 6.41312C25.4173 6.60363 25.6911 6.87867 25.88 7.20999L28.78 12.2C28.7983 12.235 28.8285 12.2624 28.865 12.2774C28.9016 12.2924 28.9423 12.294 28.98 12.282L34.544 10.8C34.9115 10.7032 35.2979 10.7044 35.6648 10.8036C36.0317 10.9027 36.3662 11.0963 36.6349 11.3651C36.9036 11.6338 37.0972 11.9683 37.1964 12.3351C37.2955 12.702 37.2968 13.0885 37.2 13.456L35.704 19.056C35.6931 19.0937 35.6953 19.134 35.7102 19.1703C35.725 19.2066 35.7518 19.2368 35.786 19.256L40.786 22.134C41.1162 22.3246 41.3903 22.5988 41.581 22.929C41.7716 23.2592 41.872 23.6337 41.872 24.015C41.872 24.3963 41.7716 24.7708 41.581 25.101C41.3903 25.4312 41.1162 25.7054 40.786 25.896L35.8 28.78C35.7663 28.7997 35.74 28.83 35.7251 28.8661C35.7103 28.9023 35.7078 28.9423 35.718 28.98L37.214 34.548C37.311 34.9167 37.3094 35.3044 37.2093 35.6722C37.1092 36.0401 36.9141 36.3752 36.6436 36.6438C36.3731 36.9125 36.0368 37.1053 35.6682 37.2029C35.2997 37.3005 34.912 37.2995 34.544 37.2L28.944 35.704C28.9063 35.6938 28.8662 35.6963 28.8301 35.7112C28.794 35.726 28.7637 35.7523 28.744 35.786L25.866 40.786C25.6773 41.1178 25.4037 41.3934 25.0733 41.5846C24.743 41.7758 24.3677 41.8757 23.986 41.874H24ZM19.068 33.706C19.4492 33.7061 19.8237 33.806 20.1542 33.9958C20.4848 34.1857 20.7598 34.4588 20.952 34.788L23.848 39.788C23.8625 39.8149 23.8842 39.8372 23.9107 39.8524C23.9372 39.8676 23.9674 39.8751 23.998 39.874C24.0282 39.8749 24.0581 39.8673 24.0843 39.8521C24.1104 39.8369 24.1318 39.8147 24.146 39.788L27.026 34.788C27.2639 34.3731 27.6325 34.0486 28.0743 33.8651C28.5161 33.6817 29.0061 33.6497 29.468 33.774L35.068 35.268C35.0973 35.2756 35.1281 35.2754 35.1573 35.2674C35.1865 35.2594 35.2131 35.244 35.2345 35.2226C35.256 35.2012 35.2714 35.1745 35.2794 35.1453C35.2873 35.1161 35.2876 35.0853 35.28 35.056L33.786 29.486C33.662 29.0253 33.6927 28.5367 33.8733 28.0952C34.054 27.6536 34.3746 27.2836 34.786 27.042L39.786 24.146C39.8126 24.131 39.8348 24.1093 39.8502 24.0829C39.8657 24.0565 39.8738 24.0265 39.8738 23.996C39.8738 23.9654 39.8657 23.9354 39.8502 23.9091C39.8348 23.8827 39.8126 23.8609 39.786 23.846L34.786 20.968C34.3718 20.7293 34.0479 20.3606 33.8646 19.9191C33.6812 19.4776 33.6487 18.9879 33.772 18.526L35.266 12.926C35.2752 12.897 35.2759 12.866 35.2681 12.8366C35.2603 12.8072 35.2443 12.7806 35.222 12.76C35.2004 12.7377 35.1732 12.7217 35.1433 12.7136C35.1134 12.7055 35.0818 12.7056 35.052 12.714L29.484 14.208C29.0233 14.3323 28.5346 14.3018 28.0929 14.1211C27.6513 13.9404 27.2814 13.6196 27.04 13.208L24.144 8.20799C24.1294 8.18277 24.1084 8.16188 24.0831 8.14747C24.0578 8.13305 24.0291 8.12564 24 8.12599C23.9697 8.12508 23.9398 8.13265 23.9137 8.14785C23.8875 8.16305 23.8662 8.18527 23.852 8.21199L20.972 13.212C20.7329 13.6264 20.3639 13.9503 19.922 14.1336C19.4801 14.317 18.9902 14.3494 18.528 14.226L12.928 12.732C12.8987 12.7244 12.8679 12.7246 12.8387 12.7326C12.8094 12.7406 12.7828 12.756 12.7614 12.7774C12.74 12.7988 12.7245 12.8255 12.7166 12.8547C12.7086 12.8839 12.7084 12.9147 12.716 12.944L14.22 18.508C14.344 18.9687 14.3133 19.4573 14.1326 19.8988C13.9519 20.3404 13.6313 20.7104 13.22 20.952L8.21998 23.848C8.19129 23.8615 8.16714 23.8831 8.15045 23.9101C8.13377 23.937 8.12527 23.9683 8.12598 24C8.12506 24.0302 8.13264 24.0601 8.14783 24.0863C8.16303 24.1124 8.18525 24.1338 8.21198 24.148L13.212 27.028C13.6259 27.267 13.9496 27.6357 14.1329 28.0771C14.3162 28.5186 14.3489 29.0081 14.226 29.47L12.732 35.07C12.7228 35.099 12.722 35.13 12.7298 35.1594C12.7376 35.1888 12.7536 35.2154 12.776 35.236C12.7977 35.2581 12.8248 35.274 12.8547 35.2821C12.8846 35.2902 12.9161 35.2901 12.946 35.282L18.514 33.788C18.6943 33.7367 18.8805 33.7091 19.068 33.706Z" fill="black"/>
<path d="M24 31.75C22.4672 31.75 20.9688 31.2955 19.6943 30.4439C18.4199 29.5923 17.4265 28.3819 16.8399 26.9658C16.2534 25.5497 16.0999 23.9914 16.3989 22.4881C16.698 20.9847 17.4361 19.6038 18.5199 18.5199C19.6038 17.4361 20.9847 16.698 22.4881 16.3989C23.9914 16.0999 25.5497 16.2534 26.9658 16.8399C28.3819 17.4265 29.5923 18.4199 30.4439 19.6943C31.2955 20.9688 31.75 22.4672 31.75 24C31.7474 26.0546 30.93 28.0243 29.4772 29.4772C28.0243 30.93 26.0546 31.7474 24 31.75ZM24 18.25C22.8628 18.25 21.7511 18.5872 20.8055 19.2191C19.8599 19.8509 19.1229 20.7489 18.6877 21.7996C18.2525 22.8502 18.1386 24.0064 18.3605 25.1218C18.5824 26.2372 19.13 27.2617 19.9341 28.0659C20.7383 28.87 21.7628 29.4177 22.8782 29.6395C23.9936 29.8614 25.1498 29.7475 26.2004 29.3123C27.2511 28.8771 28.1491 28.1401 28.781 27.1945C29.4128 26.2489 29.75 25.1372 29.75 24C29.7479 22.4757 29.1414 21.0144 28.0635 19.9365C26.9857 18.8586 25.5243 18.2521 24 18.25Z" fill="black"/>
</svg>
