<svg width="32" height="32" viewBox="0 0 48 48" fill="none" xmlns="http://www.w3.org/2000/svg">
<g clip-path="url(#clip0_119_2)">
<path fill-rule="evenodd" clip-rule="evenodd" d="M0 24C0 17.6348 2.52856 11.5303 7.02944 7.02944C11.5303 2.52856 17.6348 0 24 0C30.3652 0 36.4697 2.52856 40.9706 7.02944C45.4714 11.5303 48 17.6348 48 24C48 30.3652 45.4714 36.4697 40.9706 40.9706C36.4697 45.4714 30.3652 48 24 48C17.6348 48 11.5303 45.4714 7.02944 40.9706C2.52856 36.4697 0 30.3652 0 24ZM24 23.9349C24.0009 21.6985 24.8899 19.5541 26.4716 17.9731C28.0532 16.3921 30.198 15.504 32.4343 15.504C33.2914 15.504 33.9463 14.4754 33.3189 13.8926C31.3642 12.0799 28.9232 10.8768 26.295 10.4308C23.6668 9.98482 20.9656 10.3152 18.5224 11.3816C16.0791 12.4479 14.0001 14.2039 12.54 16.4343C11.0799 18.6646 10.3022 21.2725 10.3022 23.9383C10.3022 26.6041 11.0799 29.2119 12.54 31.4423C14.0001 33.6727 16.0791 35.4286 18.5224 36.495C20.9656 37.5613 23.6668 37.8918 26.295 37.4457C28.9232 36.9997 31.3642 35.7967 33.3189 33.984C33.9463 33.4011 33.2914 32.3691 32.4343 32.3691C31.3264 32.3691 30.2294 32.1509 29.2058 31.7268C28.1823 31.3027 27.2524 30.6811 26.4691 29.8976C25.6859 29.114 25.0647 28.1838 24.641 27.1601C24.2174 26.1365 23.9995 25.0428 24 23.9349Z" fill="#555555"/>
</g>
<defs>
<clipPath id="clip0_119_2">
<rect width="48" height="48" fill="white"/>
</clipPath>
</defs>
</svg>
